<svg id="icons" xmlns="http://www.w3.org/2000/svg" viewBox="0 0 340 340"><path d="M84.8,264.042,51.146,296.094V49.134C51.263,29.779,64.28,12.224,84.8,10Z" style="fill:#4e73a8"/><path d="M272.18,281.353s-9.17,17.552,0,33.1H67.972l-8.948-18.359L84.8,273.354H272.18Z" style="fill:#eaf5ff"/><path d="M84.112,330a32.979,32.979,0,0,1-32.966-33.906c.492-17.963,15.682-32.052,33.652-32.052H288.867v9.111a8.2,8.2,0,0,1-8.2,8.2H84.579c-22.183.615-22.7,32.155-.467,33.1H280.667a8.2,8.2,0,0,1,8.2,8.2V330Z" style="fill:#4e73a8"/><path d="M84.8,264.042V10H269.809a19.057,19.057,0,0,1,19.058,19.058V264.042Z" style="fill:#88b0ea"/><path d="M268.584,293.021H92.189a4,4,0,0,0,0,8H268.17A37.251,37.251,0,0,1,268.584,293.021Z" style="fill:#c9d4ff"/><path d="M124.286,108.34h31.482a4,4,0,0,0,4-4V72.857a4,4,0,0,0-4-4H124.286a4,4,0,0,0-4,4V104.34A4,4,0,0,0,124.286,108.34Zm4-31.483h23.482V100.34H128.286Z" style="fill:#fff"/><path d="M155.768,167.052H124.286a4,4,0,0,0-4,4v31.483a4,4,0,0,0,4,4h31.482a4,4,0,0,0,4-4V171.052A4,4,0,0,0,155.768,167.052Zm-4,31.483H128.286V175.052h23.482Z" style="fill:#fff"/><path d="M253.963,68.857H222.48a4,4,0,0,0-4,4V104.34a4,4,0,0,0,4,4h31.483a4,4,0,0,0,4-4V72.857A4,4,0,0,0,253.963,68.857Zm-4,31.483H226.48V76.857h23.483Z" style="fill:#fff"/><path d="M124.286,141.7h7.225v11.722a4,4,0,0,0,8,0V141.7h7.224a4,4,0,0,0,0-8H128.286v-8.815h7.444c5.253-.087,5.261-7.911,0-8H124.286a4,4,0,0,0-4,4V137.7A4,4,0,0,0,124.286,141.7Z" style="fill:#fff"/><path d="M158.365,137.7a4,4,0,0,0,4,4h21.2v7.416c.089,5.254,7.911,5.26,8,0V137.7a4,4,0,0,0-4-4h-8.6v-6.741c8.576,0,25.863,0,34.45,0,5.253-.088,5.261-7.911,0-8H199.859v-3.343a4,4,0,0,0-8,0v3.343H178.966v-6.208a4,4,0,0,0-8,0V133.7h-8.6A4,4,0,0,0,158.365,137.7Z" style="fill:#fff"/><path d="M171.935,166.031a4,4,0,0,0,4-4v-8.613a4,4,0,0,0-4-4H151.52c-5.251.088-5.263,7.91,0,8h16.414C168.031,160.908,166.953,165.68,171.935,166.031Z" style="fill:#fff"/><path d="M171.935,85.965a4,4,0,0,0,4-4V76.857h27.022v6.762h-7.7a4,4,0,0,0,0,8h7.7v8.688c.08,5.245,7.914,5.265,8,0V72.857a4,4,0,0,0-4-4H171.935a4,4,0,0,0-4,4v9.108A4,4,0,0,0,171.935,85.965Z" style="fill:#fff"/><path d="M253.963,116.881a4,4,0,0,0-4,4v9.545H234.15v-9.545a4,4,0,0,0-8,0v25.028h-3.017c-5.256.089-5.259,7.911,0,8h7.017a4,4,0,0,0,4-4V138.426h19.813a4,4,0,0,0,4-4V120.881A4,4,0,0,0,253.963,116.881Z" style="fill:#fff"/><path d="M181.824,189.8c5.1-.346,3.864-5.417,4-8.931H208.14a4,4,0,0,0,4-4V136.99a4,4,0,0,0-4-4h-7.017a4,4,0,0,0,0,8h3.017v31.874h-32.2a4,4,0,0,0,0,8h5.889V185.8A4,4,0,0,0,181.824,189.8Z" style="fill:#fff"/><path d="M195.859,184.826a4,4,0,0,0-4,4v9.709H171.935c-5.249.085-5.264,7.91,0,8h23.923a4,4,0,0,0,4-4V188.826A4,4,0,0,0,195.859,184.826Z" style="fill:#fff"/><path d="M253.963,173.5a4,4,0,0,0-4,4v21.033H213.894v-9.709a4,4,0,0,0-8,0v13.709a4,4,0,0,0,4,4h44.069a4,4,0,0,0,4-4V177.5A4,4,0,0,0,253.963,173.5Z" style="fill:#fff"/><path d="M253.963,159.785H238.222a4,4,0,0,0-4,4v9.079H226.48v-9.079c-.088-5.254-7.91-5.26-8,0v13.079a4,4,0,0,0,4,4h11.742v7a4,4,0,0,0,8,0V167.785h11.741C259.22,167.7,259.22,159.874,253.963,159.785Z" style="fill:#fff"/><path d="M253.963,145.909h-9.13a4,4,0,1,0,0,8h9.13C259.218,153.82,259.222,146,253.963,145.909Z" style="fill:#fff"/><path d="M140.027,84.6c-5.258.09-5.257,7.911,0,8C145.285,92.509,145.284,84.687,140.027,84.6Z" style="fill:#fff"/><path d="M140.136,189.794c5.254-.233,5.039-8.052-.218-8C134.664,182.03,134.878,189.849,140.136,189.794Z" style="fill:#fff"/><path d="M238.222,92.6c5.258-.089,5.257-7.911,0-8C232.964,84.688,232.965,92.509,238.222,92.6Z" style="fill:#fff"/><path d="M156.089,116.881c-5.257.09-5.257,7.912,0,8C161.347,124.792,161.347,116.97,156.089,116.881Z" style="fill:#fff"/><path d="M191.566,162.537c-.09-5.258-7.912-5.257-8,0C183.655,167.8,191.477,167.794,191.566,162.537Z" style="fill:#fff"/><path d="M171.935,102.008c5.258-.09,5.257-7.911,0-8C166.677,94.1,166.678,101.919,171.935,102.008Z" style="fill:#fff"/><path d="M188.329,94.008c-5.257.089-5.257,7.911,0,8C193.587,101.918,193.587,94.1,188.329,94.008Z" style="fill:#fff"/><path d="M51.145,300.094a4,4,0,0,1-4-4V49.134A44.08,44.08,0,0,1,62.132,15.649a39.342,39.342,0,0,1,22.275-9.63A4,4,0,0,1,88.8,10V245.645c-.071,5.168-7.9,5.332-8,0V14.716C65.537,18.343,54.983,33.283,55.145,49.134v246.96A4,4,0,0,1,51.145,300.094Z" style="fill:#383a49"/><path d="M272.184,318.453a4,4,0,0,1-3.449-1.968c-10.183-17.263-.516-36.187-.1-36.984,2.509-4.606,9.438-1.011,7.094,3.7-.108.211-7.985,15.862-.1,29.222A4.025,4.025,0,0,1,272.184,318.453Z" style="fill:#383a49"/><path d="M288.867,334H84.111a36.69,36.69,0,0,1-26.505-11.193c-22.937-23.248-5.526-62.9,27.192-62.764H288.867a4,4,0,0,1,4,4v9.111a12.215,12.215,0,0,1-12.2,12.2H84.579c-6.859,0-12.692,5.354-13,11.937a12.609,12.609,0,0,0,12.535,13.162H280.667a12.213,12.213,0,0,1,12.2,12.2V330A4,4,0,0,1,288.867,334ZM84.8,268.042c-25.725-.1-39.486,30.9-21.458,49.186A28.752,28.752,0,0,0,84.111,326H284.867v-3.348a4.2,4.2,0,0,0-4.2-4.2H84.111c-27.351-1.1-27.3-40.18.468-41.1H280.667a4.205,4.205,0,0,0,4.2-4.2v-5.111Z" style="fill:#383a49"/><path d="M288.867,268.042a4,4,0,0,1-4-4V29.058A15.075,15.075,0,0,0,269.809,14H84.8a4,4,0,0,1,0-8H269.809a23.084,23.084,0,0,1,23.058,23.058V264.042A4,4,0,0,1,288.867,268.042Z" style="fill:#383a49"/></svg>